<svg width="107" height="107" viewBox="0 0 107 107" fill="none" xmlns="http://www.w3.org/2000/svg">
<rect width="107" height="107" rx="20" fill="#0D4764"/>
<path d="M79.0039 49.4941C79.0039 51.5221 78.7533 53.3337 78.252 54.9287C77.7507 56.5238 77.0671 57.9365 76.2012 59.167C75.3581 60.3747 74.3783 61.4115 73.2617 62.2773C72.1452 63.1432 70.9717 63.8496 69.7412 64.3965C68.5335 64.9434 67.3031 65.3421 66.0498 65.5928C64.8193 65.8434 63.6572 65.9688 62.5635 65.9688H42.4658V57.082H62.5635C63.7028 56.9909 64.7282 56.763 65.6396 56.3984C66.5739 56.0111 67.3714 55.4984 68.0322 54.8604C68.693 54.2223 69.2057 53.459 69.5703 52.5703C69.9349 51.6589 70.1172 50.6335 70.1172 49.4941V45.4609C70.0033 44.3444 69.764 43.319 69.3994 42.3848C69.0348 41.4505 68.5335 40.653 67.8955 39.9922C67.2803 39.3314 66.5283 38.8187 65.6396 38.4541C64.751 38.0667 63.7256 37.873 62.5635 37.873H42.5342C41.3493 37.873 40.4492 38.1807 39.834 38.7959C39.2188 39.4111 38.9111 40.2998 38.9111 41.4619V78H30.0244V41.4619C30.0244 39.1833 30.4346 37.2464 31.2549 35.6514C32.098 34.0563 33.1348 32.7689 34.3652 31.7891C35.6185 30.8092 36.9743 30.1029 38.4326 29.6699C39.891 29.2142 41.2354 28.9863 42.4658 28.9863H62.5635C64.5687 28.9863 66.3688 29.2484 67.9639 29.7725C69.5589 30.2738 70.9603 30.9574 72.168 31.8232C73.3984 32.6663 74.4352 33.6462 75.2783 34.7627C76.1442 35.8792 76.8506 37.0527 77.3975 38.2832C77.9671 39.4909 78.3773 40.7214 78.6279 41.9746C78.8786 43.2051 79.0039 44.3672 79.0039 45.4609V49.4941Z" fill="white"/>
</svg>
