<svg width="581" height="256" viewBox="0 0 581 256" fill="none" xmlns="http://www.w3.org/2000/svg">
<path d="M128.03 245C127.31 245 126.725 244.79 126.275 244.37C125.855 243.92 125.645 243.365 125.645 242.705V215.795C125.645 215.135 125.87 214.595 126.32 214.175C126.77 213.725 127.31 213.5 127.94 213.5H143.15C143.81 213.5 144.35 213.71 144.77 214.13C145.22 214.55 145.445 215.075 145.445 215.705C145.445 216.275 145.22 216.77 144.77 217.19C144.35 217.61 143.81 217.82 143.15 217.82H130.01L130.325 217.37V227.405L130.055 226.865H141.125C141.785 226.865 142.325 227.075 142.745 227.495C143.195 227.915 143.42 228.44 143.42 229.07C143.42 229.64 143.195 230.135 142.745 230.555C142.325 230.975 141.785 231.185 141.125 231.185H129.965L130.325 230.825V242.705C130.325 243.365 130.1 243.92 129.65 244.37C129.2 244.79 128.66 245 128.03 245ZM154.511 242.705C154.511 243.365 154.301 243.92 153.881 244.37C153.461 244.79 152.921 245 152.261 245C151.631 245 151.091 244.79 150.641 244.37C150.221 243.92 150.011 243.365 150.011 242.705V223.445C150.011 222.785 150.221 222.245 150.641 221.825C151.091 221.375 151.631 221.15 152.261 221.15C152.921 221.15 153.461 221.375 153.881 221.825C154.301 222.245 154.511 222.785 154.511 223.445V242.705ZM152.216 218.18C151.346 218.18 150.716 218.03 150.326 217.73C149.936 217.4 149.741 216.86 149.741 216.11V215.39C149.741 214.64 149.951 214.115 150.371 213.815C150.791 213.515 151.421 213.365 152.261 213.365C153.161 213.365 153.806 213.53 154.196 213.86C154.586 214.16 154.781 214.67 154.781 215.39V216.11C154.781 216.89 154.571 217.43 154.151 217.73C153.761 218.03 153.116 218.18 152.216 218.18ZM172.535 220.79C174.665 220.79 176.315 221.24 177.485 222.14C178.655 223.01 179.465 224.195 179.915 225.695C180.395 227.165 180.635 228.815 180.635 230.645V242.705C180.635 243.365 180.41 243.92 179.96 244.37C179.54 244.79 179.015 245 178.385 245C177.725 245 177.185 244.79 176.765 244.37C176.345 243.92 176.135 243.365 176.135 242.705V230.69C176.135 229.61 175.985 228.65 175.685 227.81C175.385 226.94 174.86 226.25 174.11 225.74C173.39 225.2 172.37 224.93 171.05 224.93C169.82 224.93 168.74 225.2 167.81 225.74C166.88 226.25 166.145 226.94 165.605 227.81C165.095 228.65 164.84 229.61 164.84 230.69V242.705C164.84 243.365 164.615 243.92 164.165 244.37C163.745 244.79 163.22 245 162.59 245C161.93 245 161.39 244.79 160.97 244.37C160.55 243.92 160.34 243.365 160.34 242.705V223.625C160.34 222.965 160.55 222.425 160.97 222.005C161.39 221.555 161.93 221.33 162.59 221.33C163.22 221.33 163.745 221.555 164.165 222.005C164.615 222.425 164.84 222.965 164.84 223.625V226.145L164.03 226.595C164.24 225.935 164.6 225.275 165.11 224.615C165.65 223.925 166.295 223.295 167.045 222.725C167.795 222.125 168.635 221.66 169.565 221.33C170.495 220.97 171.485 220.79 172.535 220.79ZM206.053 211.7C206.713 211.7 207.253 211.91 207.673 212.33C208.093 212.75 208.303 213.305 208.303 213.995V242.705C208.303 243.365 208.093 243.92 207.673 244.37C207.253 244.79 206.713 245 206.053 245C205.423 245 204.883 244.79 204.433 244.37C204.013 243.92 203.803 243.365 203.803 242.705V239.465L204.748 239.51C204.748 240.05 204.523 240.665 204.073 241.355C203.653 242.015 203.068 242.66 202.318 243.29C201.568 243.92 200.683 244.445 199.663 244.865C198.643 245.255 197.548 245.45 196.378 245.45C194.308 245.45 192.448 244.925 190.798 243.875C189.148 242.795 187.843 241.34 186.883 239.51C185.923 237.65 185.443 235.52 185.443 233.12C185.443 230.72 185.923 228.605 186.883 226.775C187.843 224.915 189.133 223.46 190.753 222.41C192.403 221.33 194.233 220.79 196.243 220.79C197.503 220.79 198.673 221 199.753 221.42C200.863 221.84 201.823 222.38 202.633 223.04C203.443 223.7 204.073 224.405 204.523 225.155C204.973 225.875 205.198 226.565 205.198 227.225L203.803 227.36V213.995C203.803 213.335 204.013 212.795 204.433 212.375C204.883 211.925 205.423 211.7 206.053 211.7ZM196.873 241.31C198.313 241.31 199.558 240.95 200.608 240.23C201.688 239.51 202.528 238.535 203.128 237.305C203.728 236.075 204.028 234.68 204.028 233.12C204.028 231.56 203.728 230.165 203.128 228.935C202.528 227.705 201.688 226.73 200.608 226.01C199.528 225.29 198.283 224.93 196.873 224.93C195.493 224.93 194.263 225.29 193.183 226.01C192.133 226.73 191.293 227.705 190.663 228.935C190.063 230.165 189.763 231.56 189.763 233.12C189.763 234.68 190.063 236.075 190.663 237.305C191.293 238.535 192.133 239.51 193.183 240.23C194.263 240.95 195.493 241.31 196.873 241.31ZM244.276 221.15C244.936 221.15 245.476 221.375 245.896 221.825C246.316 222.245 246.526 222.785 246.526 223.445V242.795C246.526 245.435 246.016 247.58 244.996 249.23C244.006 250.88 242.656 252.08 240.946 252.83C239.266 253.61 237.361 254 235.231 254C234.151 254 233.071 253.895 231.991 253.685C230.911 253.505 230.026 253.235 229.336 252.875C228.616 252.545 228.106 252.14 227.806 251.66C227.506 251.18 227.461 250.655 227.671 250.085C227.881 249.365 228.241 248.87 228.751 248.6C229.261 248.36 229.786 248.345 230.326 248.555C230.836 248.765 231.511 249.035 232.351 249.365C233.191 249.695 234.151 249.86 235.231 249.86C236.701 249.86 237.946 249.62 238.966 249.14C239.986 248.66 240.751 247.91 241.261 246.89C241.801 245.87 242.071 244.55 242.071 242.93V239.825L242.791 240.905C242.311 241.895 241.681 242.72 240.901 243.38C240.121 244.04 239.191 244.55 238.111 244.91C237.061 245.27 235.891 245.45 234.601 245.45C232.951 245.45 231.526 245.09 230.326 244.37C229.156 243.62 228.256 242.6 227.626 241.31C226.996 239.99 226.681 238.49 226.681 236.81V223.445C226.681 222.785 226.891 222.245 227.311 221.825C227.731 221.375 228.271 221.15 228.931 221.15C229.561 221.15 230.086 221.375 230.506 221.825C230.956 222.245 231.181 222.785 231.181 223.445V235.595C231.181 237.575 231.616 239.03 232.486 239.96C233.356 240.86 234.646 241.31 236.356 241.31C237.496 241.31 238.486 241.07 239.326 240.59C240.166 240.11 240.826 239.45 241.306 238.61C241.786 237.74 242.026 236.735 242.026 235.595V223.445C242.026 222.785 242.236 222.245 242.656 221.825C243.106 221.375 243.646 221.15 244.276 221.15ZM275.064 233.165C275.064 235.565 274.539 237.695 273.489 239.555C272.439 241.385 271.014 242.825 269.214 243.875C267.414 244.925 265.389 245.45 263.139 245.45C260.889 245.45 258.864 244.925 257.064 243.875C255.264 242.825 253.824 241.385 252.744 239.555C251.694 237.695 251.169 235.565 251.169 233.165C251.169 230.735 251.694 228.605 252.744 226.775C253.824 224.915 255.264 223.46 257.064 222.41C258.864 221.33 260.889 220.79 263.139 220.79C265.389 220.79 267.414 221.33 269.214 222.41C271.014 223.46 272.439 224.915 273.489 226.775C274.539 228.605 275.064 230.735 275.064 233.165ZM270.564 233.165C270.564 231.515 270.234 230.09 269.574 228.89C268.914 227.66 268.014 226.7 266.874 226.01C265.764 225.29 264.519 224.93 263.139 224.93C261.759 224.93 260.499 225.29 259.359 226.01C258.219 226.7 257.319 227.66 256.659 228.89C255.999 230.09 255.669 231.515 255.669 233.165C255.669 234.755 255.999 236.165 256.659 237.395C257.319 238.625 258.219 239.585 259.359 240.275C260.499 240.965 261.759 241.31 263.139 241.31C264.519 241.31 265.764 240.965 266.874 240.275C268.014 239.585 268.914 238.625 269.574 237.395C270.234 236.165 270.564 234.755 270.564 233.165ZM297.572 221.33C298.202 221.33 298.727 221.555 299.147 222.005C299.597 222.425 299.822 222.965 299.822 223.625V235.46C299.822 238.58 298.952 241.025 297.212 242.795C295.472 244.535 293.012 245.405 289.832 245.405C286.682 245.405 284.237 244.535 282.497 242.795C280.787 241.025 279.932 238.58 279.932 235.46V223.625C279.932 222.965 280.142 222.425 280.562 222.005C280.982 221.555 281.522 221.33 282.182 221.33C282.812 221.33 283.337 221.555 283.757 222.005C284.207 222.425 284.432 222.965 284.432 223.625V235.46C284.432 237.41 284.882 238.865 285.782 239.825C286.712 240.785 288.062 241.265 289.832 241.265C291.632 241.265 292.997 240.785 293.927 239.825C294.857 238.865 295.322 237.41 295.322 235.46V223.625C295.322 222.965 295.532 222.425 295.952 222.005C296.372 221.555 296.912 221.33 297.572 221.33ZM308.105 245C307.445 245 306.905 244.79 306.485 244.37C306.065 243.92 305.855 243.365 305.855 242.705V223.625C305.855 222.965 306.065 222.425 306.485 222.005C306.905 221.555 307.445 221.33 308.105 221.33C308.735 221.33 309.26 221.555 309.68 222.005C310.13 222.425 310.355 222.965 310.355 223.625V228.665L309.905 226.73C310.145 225.89 310.505 225.11 310.985 224.39C311.495 223.67 312.095 223.04 312.785 222.5C313.475 221.96 314.24 221.54 315.08 221.24C315.95 220.94 316.85 220.79 317.78 220.79C318.56 220.79 319.235 221 319.805 221.42C320.375 221.84 320.66 222.365 320.66 222.995C320.66 223.805 320.45 224.405 320.03 224.795C319.61 225.155 319.145 225.335 318.635 225.335C318.185 225.335 317.75 225.245 317.33 225.065C316.91 224.855 316.415 224.75 315.845 224.75C315.215 224.75 314.57 224.915 313.91 225.245C313.25 225.575 312.65 226.07 312.11 226.73C311.57 227.36 311.135 228.11 310.805 228.98C310.505 229.85 310.355 230.825 310.355 231.905V242.705C310.355 243.365 310.13 243.92 309.68 244.37C309.26 244.79 308.735 245 308.105 245ZM335.343 241.31C335.073 240.89 334.953 240.41 334.983 239.87C335.013 239.3 335.328 238.82 335.928 238.43C336.348 238.16 336.783 238.055 337.233 238.115C337.713 238.145 338.163 238.37 338.583 238.79C339.423 239.72 340.353 240.455 341.373 240.995C342.423 241.535 343.683 241.805 345.153 241.805C345.753 241.775 346.368 241.685 346.998 241.535C347.628 241.355 348.168 241.055 348.618 240.635C349.068 240.185 349.293 239.54 349.293 238.7C349.293 237.95 349.053 237.35 348.573 236.9C348.093 236.45 347.463 236.09 346.683 235.82C345.903 235.52 345.063 235.25 344.163 235.01C343.203 234.74 342.228 234.44 341.238 234.11C340.278 233.78 339.408 233.36 338.628 232.85C337.848 232.31 337.203 231.62 336.693 230.78C336.213 229.94 335.973 228.905 335.973 227.675C335.973 226.265 336.363 225.05 337.143 224.03C337.953 223.01 338.988 222.215 340.248 221.645C341.538 221.075 342.933 220.79 344.433 220.79C345.303 220.79 346.218 220.91 347.178 221.15C348.138 221.36 349.068 221.705 349.968 222.185C350.868 222.665 351.648 223.295 352.308 224.075C352.608 224.465 352.773 224.93 352.803 225.47C352.863 226.01 352.623 226.49 352.083 226.91C351.723 227.21 351.288 227.345 350.778 227.315C350.268 227.285 349.848 227.12 349.518 226.82C348.948 226.1 348.213 225.545 347.313 225.155C346.413 224.735 345.393 224.525 344.253 224.525C343.683 224.525 343.083 224.615 342.453 224.795C341.853 224.945 341.343 225.23 340.923 225.65C340.503 226.07 340.293 226.685 340.293 227.495C340.293 228.245 340.533 228.845 341.013 229.295C341.523 229.745 342.183 230.12 342.993 230.42C343.803 230.72 344.688 230.99 345.648 231.23C346.578 231.47 347.493 231.755 348.393 232.085C349.323 232.415 350.148 232.85 350.868 233.39C351.618 233.9 352.218 234.575 352.668 235.415C353.148 236.225 353.388 237.26 353.388 238.52C353.388 239.99 352.953 241.25 352.083 242.3C351.243 243.32 350.163 244.1 348.843 244.64C347.553 245.18 346.188 245.45 344.748 245.45C343.038 245.45 341.328 245.15 339.618 244.55C337.938 243.92 336.513 242.84 335.343 241.31ZM369.927 220.925C372.027 220.925 373.887 221.45 375.507 222.5C377.157 223.55 378.462 224.99 379.422 226.82C380.382 228.62 380.862 230.72 380.862 233.12C380.862 235.52 380.382 237.65 379.422 239.51C378.462 241.34 377.172 242.78 375.552 243.83C373.932 244.88 372.102 245.405 370.062 245.405C368.922 245.405 367.842 245.225 366.822 244.865C365.802 244.505 364.902 244.04 364.122 243.47C363.342 242.87 362.697 242.24 362.187 241.58C361.707 240.92 361.407 240.305 361.287 239.735L362.502 239.15V251.705C362.502 252.365 362.277 252.905 361.827 253.325C361.407 253.775 360.882 254 360.252 254C359.592 254 359.052 253.775 358.632 253.325C358.212 252.905 358.002 252.365 358.002 251.705V223.535C358.002 222.905 358.212 222.365 358.632 221.915C359.052 221.465 359.592 221.24 360.252 221.24C360.882 221.24 361.407 221.465 361.827 221.915C362.277 222.365 362.502 222.905 362.502 223.535V226.64L361.782 226.235C361.872 225.665 362.157 225.08 362.637 224.48C363.117 223.85 363.717 223.265 364.437 222.725C365.187 222.185 366.027 221.75 366.957 221.42C367.917 221.09 368.907 220.925 369.927 220.925ZM369.432 225.065C367.992 225.065 366.732 225.425 365.652 226.145C364.602 226.835 363.777 227.78 363.177 228.98C362.577 230.18 362.277 231.56 362.277 233.12C362.277 234.65 362.577 236.045 363.177 237.305C363.777 238.535 364.602 239.51 365.652 240.23C366.732 240.92 367.992 241.265 369.432 241.265C370.842 241.265 372.072 240.92 373.122 240.23C374.172 239.51 374.997 238.535 375.597 237.305C376.227 236.045 376.542 234.65 376.542 233.12C376.542 231.59 376.227 230.225 375.597 229.025C374.997 227.795 374.172 226.835 373.122 226.145C372.072 225.425 370.842 225.065 369.432 225.065ZM405.121 220.97C405.781 220.97 406.321 221.195 406.741 221.645C407.161 222.065 407.371 222.605 407.371 223.265V242.705C407.371 243.365 407.161 243.92 406.741 244.37C406.321 244.79 405.781 245 405.121 245C404.491 245 403.951 244.79 403.501 244.37C403.081 243.92 402.871 243.365 402.871 242.705V239.465L403.816 239.6C403.816 240.14 403.591 240.74 403.141 241.4C402.721 242.06 402.136 242.705 401.386 243.335C400.636 243.935 399.751 244.445 398.731 244.865C397.711 245.255 396.616 245.45 395.446 245.45C393.376 245.45 391.516 244.925 389.866 243.875C388.216 242.795 386.911 241.325 385.951 239.465C384.991 237.605 384.511 235.49 384.511 233.12C384.511 230.69 384.991 228.56 385.951 226.73C386.911 224.87 388.201 223.415 389.821 222.365C391.471 221.315 393.301 220.79 395.311 220.79C396.601 220.79 397.786 221 398.866 221.42C399.976 221.84 400.936 222.38 401.746 223.04C402.556 223.7 403.171 224.405 403.591 225.155C404.041 225.875 404.266 226.565 404.266 227.225L402.871 227.36V223.265C402.871 222.635 403.081 222.095 403.501 221.645C403.951 221.195 404.491 220.97 405.121 220.97ZM395.941 241.31C397.351 241.31 398.596 240.95 399.676 240.23C400.756 239.51 401.596 238.535 402.196 237.305C402.796 236.045 403.096 234.65 403.096 233.12C403.096 231.56 402.796 230.165 402.196 228.935C401.596 227.705 400.756 226.73 399.676 226.01C398.596 225.29 397.351 224.93 395.941 224.93C394.561 224.93 393.331 225.29 392.251 226.01C391.201 226.73 390.361 227.705 389.731 228.935C389.131 230.165 388.831 231.56 388.831 233.12C388.831 234.65 389.131 236.045 389.731 237.305C390.361 238.535 391.201 239.51 392.251 240.23C393.331 240.95 394.561 241.31 395.941 241.31ZM423.936 220.79C425.556 220.79 426.996 220.97 428.256 221.33C429.516 221.66 430.491 222.14 431.181 222.77C431.901 223.37 432.261 224.075 432.261 224.885C432.261 225.395 432.111 225.875 431.811 226.325C431.511 226.745 431.061 226.955 430.461 226.955C430.041 226.955 429.681 226.88 429.381 226.73C429.111 226.58 428.856 226.4 428.616 226.19C428.376 225.98 428.076 225.77 427.716 225.56C427.386 225.38 426.891 225.23 426.231 225.11C425.601 224.99 425.031 224.93 424.521 224.93C422.931 224.93 421.551 225.29 420.381 226.01C419.241 226.73 418.341 227.705 417.681 228.935C417.051 230.165 416.736 231.56 416.736 233.12C416.736 234.68 417.051 236.075 417.681 237.305C418.341 238.535 419.226 239.51 420.336 240.23C421.476 240.95 422.796 241.31 424.296 241.31C425.196 241.31 425.931 241.25 426.501 241.13C427.071 240.98 427.566 240.8 427.986 240.59C428.436 240.32 428.811 240.05 429.111 239.78C429.441 239.48 429.891 239.33 430.461 239.33C431.121 239.33 431.616 239.54 431.946 239.96C432.306 240.35 432.486 240.845 432.486 241.445C432.486 242.105 432.081 242.75 431.271 243.38C430.491 243.98 429.441 244.475 428.121 244.865C426.801 245.255 425.346 245.45 423.756 245.45C421.416 245.45 419.376 244.91 417.636 243.83C415.926 242.75 414.591 241.28 413.631 239.42C412.701 237.56 412.236 235.46 412.236 233.12C412.236 230.75 412.731 228.65 413.721 226.82C414.711 224.96 416.091 223.49 417.861 222.41C419.631 221.33 421.656 220.79 423.936 220.79ZM447.586 245.45C445.096 245.45 442.936 244.94 441.106 243.92C439.276 242.87 437.851 241.445 436.831 239.645C435.841 237.815 435.346 235.73 435.346 233.39C435.346 230.75 435.871 228.5 436.921 226.64C438.001 224.75 439.396 223.31 441.106 222.32C442.816 221.3 444.631 220.79 446.551 220.79C448.021 220.79 449.416 221.09 450.736 221.69C452.056 222.26 453.226 223.07 454.246 224.12C455.296 225.14 456.121 226.355 456.721 227.765C457.321 229.145 457.636 230.66 457.666 232.31C457.636 232.91 457.396 233.405 456.946 233.795C456.496 234.185 455.971 234.38 455.371 234.38H437.866L436.786 230.555H453.706L452.851 231.365V230.24C452.791 229.19 452.446 228.275 451.816 227.495C451.186 226.685 450.406 226.07 449.476 225.65C448.546 225.2 447.571 224.975 446.551 224.975C445.651 224.975 444.781 225.125 443.941 225.425C443.131 225.695 442.396 226.145 441.736 226.775C441.106 227.405 440.596 228.245 440.206 229.295C439.846 230.315 439.666 231.59 439.666 233.12C439.666 234.77 440.011 236.21 440.701 237.44C441.391 238.67 442.321 239.63 443.491 240.32C444.661 240.98 445.951 241.31 447.361 241.31C448.471 241.31 449.386 241.205 450.106 240.995C450.826 240.755 451.426 240.47 451.906 240.14C452.386 239.81 452.806 239.495 453.166 239.195C453.616 238.925 454.066 238.79 454.516 238.79C455.056 238.79 455.506 238.985 455.866 239.375C456.226 239.735 456.406 240.17 456.406 240.68C456.406 241.34 456.076 241.94 455.416 242.48C454.606 243.26 453.481 243.95 452.041 244.55C450.631 245.15 449.146 245.45 447.586 245.45Z" fill="#989898"/>
<path d="M292 175.018V66.9999C292.833 64.1666 295.4 59.4184 303 59.0184C310.6 58.6184 314.167 64.8516 314.5 68.0183V74C329.3 61.2 342.667 59.185 347 59.0183H355L363.5 59.5182C372.5 60.9999 376 63.4816 378.5 69.4999C379.5 81.4999 366.046 79.5183 363.5 79.5183C360.5 79.5183 359.959 78.2775 341 79.5183C326 80.4999 315.5 91.9999 314.5 102V175.018C314 178.185 311 184.518 303 184.518C295 184.518 292.333 178.185 292 175.018Z" fill="#041821"/>
<path fill-rule="evenodd" clip-rule="evenodd" d="M256 121.5C256 122.34 255.984 123.175 255.951 124.007C255.984 124.334 256 124.665 256 125V175C256 180.523 251.523 185 246 185H196C195.665 185 195.334 184.984 195.008 184.951C194.176 184.984 193.34 185 192.5 185C159.5 187.5 130 160.5 131 121.5C131 86.4299 157.43 58 192.5 58C229.5 58 259 85.5 256 121.5ZM192.5 164C220 166 235 144.972 235 121.5C235 98.0279 217.474 77.8648 192.5 79C170.5 80 153.5 98.0279 153.5 121.5C153.5 144.972 169.028 164 192.5 164Z" fill="#092F43"/>
<path fill-rule="evenodd" clip-rule="evenodd" d="M0.883443 175C1.55011 178 4.78344 184.1 12.3834 184.5C19.9834 184.9 23.2168 178.333 23.8834 175L23.8834 127.5C24.0501 125.667 25.5834 122 30.3834 122H67.3834C84 121 116.883 104.9 116.883 64.5C116.883 24.1 83.8834 8.66666 67.3834 5.99998H10.8834C8.21678 5.99998 2.48344 7.69998 0.883443 14.5C-0.716557 21.3 0.216776 124.333 0.883443 175ZM24 33C24 31.0008 24.9684 29.7759 26.1976 29.027C27.452 28.2628 28.9784 28.0006 29.9967 28H30H66.5C83 28 95 43.9716 95 66C95 88.0278 79 99.5 66.9271 100.5H30C28.4816 100.5 27.6268 100.068 26.7112 99.6063C26.6413 99.571 26.571 99.5355 26.5 99.5C25.5 99 24 97 24 95.9015L24 33Z" fill="#0D4764"/>
<path fill-rule="evenodd" clip-rule="evenodd" d="M540.75 168.84C525.883 179.035 507.888 185 488.5 185C437.414 185 396 143.586 396 92.5C396 41.4137 437.414 0 488.5 0C539.586 0 581 41.4137 581 92.5C581 115.471 572.627 136.486 558.766 152.66L568.321 162.195C573.048 166.911 573.056 174.565 568.34 179.292C563.624 184.018 555.969 184.026 551.243 179.31L540.75 168.84ZM558 92C558 130.66 526.66 162 488 162C449.34 162 418 130.66 418 92C418 53.3401 449.34 22 488 22C526.66 22 558 53.3401 558 92Z" fill="black"/>
</svg>
